<?xml version="1.0" encoding="iso-8859-1"?>
<!-- Generator: Adobe Illustrator 19.0.0, SVG Export Plug-In . SVG Version: 6.00 Build 0)  -->
<svg version="1.1" id="Capa_1" xmlns="http://www.w3.org/2000/svg" xmlns:xlink="http://www.w3.org/1999/xlink" x="0px" y="0px"
	 viewBox="0 0 416 416" style="enable-background:new 0 0 416 416;" xml:space="preserve">
<g>
	<g>
		<path d="M152.72,267.6L54.88,254l-16-2.24v120c-0.11,3.766,2.423,7.097,6.08,8L195.2,416V203.2L152.72,267.6z"/>
	</g>
</g>
<g>
	<g>
		<path d="M351.52,255.28l-83.2,11.68h-1.12c-2.676-0.014-5.168-1.365-6.64-3.6l-49.36-74.64V416l150.24-36.96
			c3.657-0.903,6.19-4.234,6.08-8v-118L351.52,255.28z"/>
	</g>
</g>
<g>
	<g>
		<polygon points="53.28,173.28 14.48,232.16 144.88,250.4 195.2,174.16 195.2,173.28 		"/>
	</g>
</g>
<g>
	<g>
		<polygon points="362.72,173.28 220.16,173.28 271.12,250.4 401.52,232.16 		"/>
	</g>
</g>
<g>
	<g>
		<path d="M192.84,80.36c-2.563-3.601-7.559-4.443-11.16-1.88L144,104V8c0-4.418-3.582-8-8-8s-8,3.582-8,8v96L90.32,77.28
			c-3.601-2.563-8.597-1.721-11.16,1.88c-2.563,3.601-1.721,8.597,1.88,11.16l50,36.08h0.48H132h0.4
			c1.048,0.825,2.285,1.375,3.6,1.6c1.111-0.042,2.201-0.314,3.2-0.8h0.72h0.72l50.32-35.68
			C194.561,88.957,195.403,83.961,192.84,80.36z"/>
	</g>
</g>
<g>
	<g>
		<path d="M326.28,79.56c-2.563-3.601-7.559-4.443-11.16-1.88L277.44,104V8c0-4.418-3.582-8-8-8s-8,3.582-8,8v96L224,77.68
			c-3.601-2.563-8.597-1.721-11.16,1.88c-2.563,3.601-1.721,8.597,1.88,11.16l50.08,35.68h0.48h0.48h0.4
			c1.024,0.497,2.142,0.77,3.28,0.8c1.111-0.042,2.201-0.314,3.2-0.8h0.72h0.72l50.32-35.68
			C328.001,88.157,328.843,83.161,326.28,79.56z"/>
	</g>
</g>
<g>
</g>
<g>
</g>
<g>
</g>
<g>
</g>
<g>
</g>
<g>
</g>
<g>
</g>
<g>
</g>
<g>
</g>
<g>
</g>
<g>
</g>
<g>
</g>
<g>
</g>
<g>
</g>
<g>
</g>
</svg>
